<svg width="48" height="32" viewBox="0 0 48 32" fill="none" xmlns="http://www.w3.org/2000/svg">
<g clip-path="url(#clip0_2001_2096)">
<path d="M5.80272 20.9308C5.80272 22.6914 6.19615 24.0432 6.71022 24.8609C7.38434 25.9321 8.38955 26.3858 9.41457 26.3858C10.7366 26.3858 11.946 26.0634 14.2766 22.8966C16.1438 20.3583 18.344 16.7953 19.8242 14.5616L22.3313 10.7774C24.0728 8.14929 26.0884 5.22779 28.3997 3.24741C30.286 1.63104 32.3213 0.733154 34.3695 0.733154C37.8085 0.733154 41.0841 2.69103 43.5912 6.36307C46.3348 10.3845 47.6667 15.45 47.6667 20.6773C47.6667 23.7849 47.0434 26.0682 45.9824 27.8723C44.9574 29.6169 42.9596 31.3599 39.5991 31.3599V26.3858C42.4766 26.3858 43.1947 23.7881 43.1947 20.8153C43.1947 16.579 42.1893 11.8774 39.9746 8.51817C38.4027 6.13522 36.3659 4.67934 34.125 4.67934C31.7013 4.67934 29.7508 6.47511 27.5589 9.67759C26.3936 11.3788 25.1972 13.4521 23.8541 15.7915L22.3753 18.3652C19.4048 23.5396 18.6524 24.7181 17.1672 26.6632C14.5639 30.0692 12.3411 31.3599 9.41457 31.3599C5.94315 31.3599 3.74774 29.8829 2.38832 27.6574C1.27842 25.8438 0.733368 23.4643 0.733368 20.7528L5.80272 20.9308Z" fill="#0081FB"/>
<path d="M4.73041 6.71412C7.05471 3.19463 10.4086 0.733154 14.2555 0.733154C16.4835 0.733154 18.6982 1.38104 21.011 3.23624C23.5406 5.26454 26.2369 8.60463 29.6007 14.1095L30.807 16.0849C33.7185 20.8506 35.3751 23.3022 36.3446 24.4585C37.5916 25.9432 38.4649 26.3858 39.5991 26.3858C42.4766 26.3858 43.1947 23.7881 43.1947 20.8153L47.6667 20.6773C47.6667 23.7849 47.0434 26.0682 45.9824 27.8723C44.9574 29.6169 42.9596 31.3599 39.5991 31.3599C37.5101 31.3599 35.6593 30.9141 33.6126 29.0171C32.0392 27.5612 30.1998 24.9747 28.7847 22.6496L24.5753 15.7418C22.4635 12.2751 20.526 9.69037 19.405 8.51961C18.199 7.26096 16.6484 5.74077 14.1741 5.74077C12.1715 5.74077 10.4708 7.12155 9.04754 9.23324L4.73041 6.71412Z" fill="url(#paint0_linear_2001_2096)"/>
<path d="M14.1739 5.74077C12.1714 5.74077 10.4706 7.12155 9.04735 9.23324C7.03509 12.2174 5.80272 16.6622 5.80272 20.9308C5.80272 22.6914 6.19615 24.0432 6.71022 24.8609L2.38832 27.6574C1.27842 25.8438 0.733368 23.4643 0.733368 20.7528C0.733368 15.8219 2.11094 10.6828 4.7304 6.71412C7.0547 3.19463 10.4086 0.733154 14.2555 0.733154L14.1739 5.74077Z" fill="url(#paint1_linear_2001_2096)"/>
</g>
<defs>
<linearGradient id="paint0_linear_2001_2096" x1="600.601" y1="1713.81" x2="3828.06" y2="1879.73" gradientUnits="userSpaceOnUse">
<stop stop-color="#0064E1"/>
<stop offset="0.4" stop-color="#0064E1"/>
<stop offset="0.83" stop-color="#0073EE"/>
<stop offset="1" stop-color="#0082FB"/>
</linearGradient>
<linearGradient id="paint1_linear_2001_2096" x1="735.187" y1="2229.58" x2="735.187" y2="1059.04" gradientUnits="userSpaceOnUse">
<stop stop-color="#0082FB"/>
<stop offset="1" stop-color="#0064E0"/>
</linearGradient>
<clipPath id="clip0_2001_2096">
<rect width="46.9334" height="30.8" fill="white" transform="translate(0.733368 0.733154)"/>
</clipPath>
</defs>
</svg>
