<svg width="33" height="33" viewBox="0 0 33 33" fill="none" xmlns="http://www.w3.org/2000/svg">
<g clip-path="url(#clip0_2001_2066)">
<path d="M6.59787 21.9175L12.945 18.3698L13.0512 18.0605L12.945 17.8897H12.6346L11.5726 17.8246L7.94576 17.7269L4.80077 17.5967L1.75371 17.434L0.98586 17.2712L0.267044 16.3273L0.340526 15.8553L0.98586 15.4242L1.90899 15.5056L3.95112 15.6438L7.01444 15.8553L9.23643 15.9855L12.5284 16.3273H13.0512L13.1247 16.1157L12.945 15.9855L12.8062 15.8553L9.63661 13.7153L6.20575 11.4533L4.40865 10.1513L3.43649 9.49216L2.94644 8.87382L2.73406 7.52314L3.61635 6.55476L4.80077 6.63624L5.10301 6.7176L6.30381 7.63701L8.86876 9.61445L12.2179 12.0716L12.7081 12.4784L12.9041 12.34L12.9287 12.2425L12.7081 11.8763L10.8864 8.5971L8.94224 5.26096L8.07634 3.87763L7.8477 3.04774C7.76602 2.70586 7.7088 2.42111 7.7088 2.0712L8.7136 0.712358L9.26894 0.533447L10.6088 0.712483L11.1724 1.20063L12.0056 3.09658L13.3535 6.08294L15.4446 10.1433L16.0573 11.3476L16.384 12.4623L16.5066 12.8041H16.719V12.6087L16.8904 10.3223L17.2091 7.51498L17.5195 3.90211L17.6258 2.88515L18.1322 1.66454L19.1369 1.00539L19.9211 1.37966L20.5664 2.2992L20.4766 2.89306L20.0927 5.37496L19.3412 9.26453L18.851 11.8683H19.1369L19.4637 11.5428L20.787 9.79336L23.0089 7.02671L23.9892 5.92826L25.1328 4.71581L25.868 4.13815H27.2567L28.2777 5.65167L27.8204 7.21391L26.3908 9.02034L25.2063 10.5501L23.5072 12.8284L22.4452 14.6512L22.5433 14.7976L22.7966 14.7732L26.6359 13.9595L28.7108 13.5851L31.1858 13.162L32.3051 13.6828L32.4275 14.2118L31.9863 15.294L29.3397 15.9449L26.2355 16.5633L21.6121 17.6537L21.5549 17.6944L21.6203 17.7758L23.7032 17.971L24.5937 18.0199H26.7748L30.8346 18.3209L31.8966 19.0207L32.5337 19.8751L32.4275 20.526L30.7937 21.356L28.5882 20.8352L23.442 19.6147L21.6774 19.1753H21.4323V19.3218L22.9028 20.7539L25.5984 23.1788L28.9722 26.3034L29.1436 27.0764L28.7108 27.6865L28.2532 27.6215L25.288 25.4001L24.1444 24.3992L21.5549 22.2267H21.3834V22.4545L21.9796 23.3251L25.1328 28.0446L25.2962 29.493L25.0675 29.9651L24.2506 30.2498L23.352 30.087L21.5058 27.5076L19.6026 24.6026L18.0668 21.9988L17.879 22.1047L16.9722 31.8284L16.5475 32.3247L15.5671 32.6989L14.7504 32.0806L14.3173 31.0797L14.7502 29.1024L15.2731 26.5231L15.6978 24.4724L16.0818 21.9256L16.3105 21.0794L16.2941 21.0224L16.1063 21.0468L14.1785 23.6832L11.2459 27.6297L8.92598 30.1033L8.37052 30.323L7.40655 29.8266L7.49642 28.9397L8.0355 28.1505L11.2458 24.082L13.1818 21.5594L14.4317 20.103L14.4235 19.8913H14.3501L5.8217 25.4083L4.30227 25.6035L3.64874 24.9933L3.73042 23.9925L4.04086 23.6669L6.60581 21.9093L6.59787 21.9175Z" fill="#D97757"/>
</g>
<defs>
<clipPath id="clip0_2001_2066">
<rect width="32.2667" height="32.2667" fill="white" transform="translate(0.267044 0.533447)"/>
</clipPath>
</defs>
</svg>
