<svg width="119" height="87" viewBox="0 0 119 87" fill="none" xmlns="http://www.w3.org/2000/svg">
<path d="M82.344 16.3741H36.8388L33.014 12.5664C32.3003 11.8559 31.1432 11.8559 30.4295 12.5664L28.0797 14.9057C27.366 15.6162 27.366 16.7682 28.0797 17.4787L33.732 23.1057H85.4507L91.1031 17.4787C91.8167 16.7682 91.8167 15.6162 91.1031 14.9057L88.7533 12.5664C88.0396 11.8559 86.8825 11.8559 86.1688 12.5664L82.344 16.3741Z" fill="url(#paint0_linear_2001_300)"/>
<path d="M43.804 13.4632C42.5442 13.4632 41.6622 12.224 42.0798 11.0407L45.5471 1.21626C45.8043 0.48761 46.4955 0 47.2713 0H50.3295C51.3934 0 52.1975 0.959225 52.0072 2.00128H67.1756C66.8995 0.993384 67.6616 0 68.711 0H71.7287C72.5045 0 73.1957 0.487612 73.4529 1.21626L76.9202 11.0407C77.3378 12.224 76.4558 13.4632 75.196 13.4632H71.2822C70.3889 13.4632 69.6265 12.8202 69.4796 11.9429L69.0031 9.09675H49.9969L49.5204 11.9429C49.3736 12.8202 48.6111 13.4632 47.7178 13.4632H43.804Z" fill="url(#paint1_linear_2001_300)"/>
<path d="M67.1756 26.7444H86.1558C86.6405 26.7444 87.1053 26.5528 87.448 26.2116L93.6616 20.0258C94.3753 19.3153 95.5324 19.3153 96.2461 20.0258L98.9614 22.7289C99.6751 23.4394 99.6751 24.5914 98.9614 25.3019L90.3721 33.8528C90.0293 34.194 89.5645 34.3857 89.0798 34.3857H74.6684V46.9392H79.9682C80.9775 46.9392 81.7957 47.7538 81.7957 48.7586V54.6715C81.7957 55.2946 81.4754 55.8743 80.9469 56.208L74.8641 60.0481C74.6208 60.2017 74.3029 60.0277 74.3029 59.7408V53.4889H44.6971V59.7408C44.6971 60.0277 44.3792 60.2017 44.1359 60.0481L38.0531 56.208C37.5246 55.8743 37.2043 55.2946 37.2043 54.6715V48.7586C37.2043 47.7538 38.0225 46.9392 39.0318 46.9392H44.5144V34.3857H30.103C29.6183 34.3857 29.1534 34.194 28.8107 33.8528L20.2214 25.3019C19.5077 24.5914 19.5077 23.4394 20.2214 22.7289L22.9367 20.0258C23.6504 19.3153 24.8075 19.3153 25.5212 20.0258L31.7347 26.2116C32.0775 26.5528 32.5423 26.7444 33.027 26.7444H51.8244V46.9392H67.1756V26.7444Z" fill="url(#paint2_linear_2001_300)"/>
<path d="M61.49 78.516C61.3322 78.8798 61.7827 79.1589 62.056 78.8708C68.5278 72.0468 75.2107 66.3141 85.447 63.4535C86.1243 63.2642 86.6475 62.7206 86.7859 62.034L87.4148 58.9124C87.6981 57.5067 86.3157 56.3538 85.0013 56.9395C74.0379 61.825 65.3501 69.6153 61.49 78.516Z" fill="url(#paint3_linear_2001_300)"/>
<path d="M62.0049 82.7779C61.7707 83.1154 62.1864 83.4816 62.5084 83.2257C71.7054 75.9181 83.513 69.3516 100.2 67.9839C101.002 67.9182 101.679 67.3525 101.863 66.573L102.742 62.8556C103.053 61.5429 101.868 60.3649 100.554 60.696C82.286 65.3025 69.0762 72.5906 62.0049 82.7779Z" fill="url(#paint4_linear_2001_300)"/>
<path d="M63.5002 86.484C63.255 86.8025 63.6349 87.1574 63.9638 86.9255C73.9579 79.8759 90.2542 74.0896 113.734 72.4351C114.133 72.4069 114.43 72.8015 114.287 73.1735L110.311 83.4496C110.149 83.868 110.742 84.1507 110.968 83.7629L118.75 70.4042C119.497 69.1217 118.468 67.5401 116.988 67.7054C89.1872 70.8097 70.3532 77.5829 63.5002 86.484Z" fill="url(#paint5_linear_2001_300)"/>
<path d="M57.51 78.516C57.6678 78.8798 57.2173 79.1589 56.944 78.8708C50.4722 72.0468 43.7893 66.3141 33.553 63.4535C32.8757 63.2642 32.3525 62.7206 32.2142 62.034L31.5852 58.9124C31.302 57.5067 32.6843 56.3538 33.9987 56.9395C44.9621 61.825 53.6499 69.6153 57.51 78.516Z" fill="url(#paint6_linear_2001_300)"/>
<path d="M56.9951 82.7779C57.2293 83.1154 56.8136 83.4816 56.4916 83.2257C47.2946 75.9181 35.487 69.3516 18.8 67.9839C17.9983 67.9182 17.321 67.3525 17.1367 66.573L16.2577 62.8556C15.9473 61.5429 17.1325 60.3649 18.4457 60.696C36.714 65.3025 49.9238 72.5906 56.9951 82.7779Z" fill="url(#paint7_linear_2001_300)"/>
<path d="M55.4998 86.484C55.745 86.8025 55.3651 87.1574 55.0362 86.9255C45.0421 79.8759 28.7458 74.0896 5.26635 72.4351C4.86698 72.4069 4.56959 72.8015 4.71349 73.1735L8.68902 83.4496C8.85087 83.868 8.25767 84.1507 8.03176 83.7629L0.249675 70.4042C-0.497417 69.1217 0.532151 67.5401 2.01205 67.7054C29.8128 70.8097 48.6469 77.5829 55.4998 86.484Z" fill="url(#paint8_linear_2001_300)"/>
<defs>
<linearGradient id="paint0_linear_2001_300" x1="37.4382" y1="-2.20812" x2="66.3736" y2="96.048" gradientUnits="userSpaceOnUse">
<stop stop-color="#000071"/>
<stop offset="0.61" stop-color="#0065B3"/>
</linearGradient>
<linearGradient id="paint1_linear_2001_300" x1="37.4382" y1="-2.20812" x2="66.3736" y2="96.048" gradientUnits="userSpaceOnUse">
<stop stop-color="#000071"/>
<stop offset="0.61" stop-color="#0065B3"/>
</linearGradient>
<linearGradient id="paint2_linear_2001_300" x1="37.4382" y1="-2.20812" x2="66.3736" y2="96.048" gradientUnits="userSpaceOnUse">
<stop stop-color="#000071"/>
<stop offset="0.61" stop-color="#0065B3"/>
</linearGradient>
<linearGradient id="paint3_linear_2001_300" x1="37.4382" y1="-2.20812" x2="66.3736" y2="96.048" gradientUnits="userSpaceOnUse">
<stop stop-color="#000071"/>
<stop offset="0.61" stop-color="#0065B3"/>
</linearGradient>
<linearGradient id="paint4_linear_2001_300" x1="37.4382" y1="-2.20812" x2="66.3736" y2="96.048" gradientUnits="userSpaceOnUse">
<stop stop-color="#000071"/>
<stop offset="0.61" stop-color="#0065B3"/>
</linearGradient>
<linearGradient id="paint5_linear_2001_300" x1="37.4382" y1="-2.20812" x2="66.3736" y2="96.048" gradientUnits="userSpaceOnUse">
<stop stop-color="#000071"/>
<stop offset="0.61" stop-color="#0065B3"/>
</linearGradient>
<linearGradient id="paint6_linear_2001_300" x1="37.4382" y1="-2.20812" x2="66.3736" y2="96.048" gradientUnits="userSpaceOnUse">
<stop stop-color="#000071"/>
<stop offset="0.61" stop-color="#0065B3"/>
</linearGradient>
<linearGradient id="paint7_linear_2001_300" x1="37.4382" y1="-2.20812" x2="66.3736" y2="96.048" gradientUnits="userSpaceOnUse">
<stop stop-color="#000071"/>
<stop offset="0.61" stop-color="#0065B3"/>
</linearGradient>
<linearGradient id="paint8_linear_2001_300" x1="37.4382" y1="-2.20812" x2="66.3736" y2="96.048" gradientUnits="userSpaceOnUse">
<stop stop-color="#000071"/>
<stop offset="0.61" stop-color="#0065B3"/>
</linearGradient>
</defs>
</svg>
