<svg width="132" height="127" viewBox="0 0 132 127" fill="none" xmlns="http://www.w3.org/2000/svg">
<path d="M111.375 62.1771H110.605C107.443 48.5775 94.82 38.3646 79.75 38.3646H70.125V34.9779C74.91 33.3375 78.375 28.9719 78.375 23.8125C78.375 17.2508 72.82 11.9062 66 11.9062C59.18 11.9062 53.625 17.2508 53.625 23.8125C53.625 28.9719 57.09 33.3375 61.875 34.9779V38.3646H52.25C37.18 38.3646 24.5575 48.5775 21.395 62.1771H20.625C16.0875 62.1771 12.375 65.749 12.375 70.1146V78.0521C12.375 82.4177 16.0875 85.9896 20.625 85.9896H22.1375C25.3825 95.7263 33.5775 103.293 43.8625 106.045C43.0925 107.606 42.625 109.299 42.625 111.125C42.625 113.321 44.4675 115.094 46.75 115.094H85.25C87.5325 115.094 89.375 113.321 89.375 111.125C89.375 109.299 88.9075 107.58 88.1375 106.045C98.4225 103.32 106.618 95.7263 109.863 85.9896H111.375C115.912 85.9896 119.625 82.4177 119.625 78.0521V70.1146C119.625 65.749 115.912 62.1771 111.375 62.1771ZM66 19.8437C68.2825 19.8437 70.125 21.6165 70.125 23.8125C70.125 26.0085 68.2825 27.7812 66 27.7812C63.7175 27.7812 61.875 26.0085 61.875 23.8125C61.875 21.6165 63.7175 19.8437 66 19.8437ZM79.75 99.2188H52.25C39.3525 99.2188 28.875 89.1381 28.875 76.7292V68.7917C28.875 56.3827 39.3525 46.3021 52.25 46.3021H79.75C92.6475 46.3021 103.125 56.3827 103.125 68.7917V76.7292C103.125 89.1381 92.6475 99.2188 79.75 99.2188Z" fill="url(#paint0_linear_14_35)"/>
<path d="M50.875 56.8854C46.3375 56.8854 42.625 60.4573 42.625 64.8229V72.7604C42.625 77.126 46.3375 80.6979 50.875 80.6979C55.4125 80.6979 59.125 77.126 59.125 72.7604V64.8229C59.125 60.4573 55.4125 56.8854 50.875 56.8854Z" fill="url(#paint1_linear_14_35)"/>
<path d="M81.125 56.8854C76.5875 56.8854 72.875 60.4573 72.875 64.8229V72.7604C72.875 77.126 76.5875 80.6979 81.125 80.6979C85.6625 80.6979 89.375 77.126 89.375 72.7604V64.8229C89.375 60.4573 85.6625 56.8854 81.125 56.8854Z" fill="url(#paint2_linear_14_35)"/>
<path d="M37.2075 19.6321L45.4575 22.2779C45.8975 22.4102 46.3375 22.4896 46.75 22.4896C48.4825 22.4896 50.0775 21.4312 50.655 19.7644C51.37 17.6742 50.215 15.4252 48.0425 14.7373L39.7925 12.0915C37.6475 11.4035 35.31 12.5148 34.5675 14.605C33.825 16.6952 35.0075 18.9442 37.18 19.6321H37.2075Z" fill="url(#paint3_linear_14_35)"/>
<path d="M38.5 35.7188C38.94 35.7188 39.38 35.6658 39.7925 35.5071L48.0425 32.8612C50.215 32.1733 51.37 29.9244 50.655 27.8342C49.94 25.744 47.6025 24.6327 45.43 25.3206L37.18 27.9665C35.0075 28.6544 33.8525 30.9033 34.5675 32.9935C35.145 34.6604 36.74 35.7188 38.4725 35.7188H38.5Z" fill="url(#paint4_linear_14_35)"/>
<path d="M85.25 22.4896C85.69 22.4896 86.13 22.4367 86.5425 22.2779L94.7925 19.6321C96.965 18.9442 98.12 16.6952 97.405 14.605C96.69 12.5148 94.3525 11.4035 92.18 12.0915L83.93 14.7373C81.7575 15.4252 80.6025 17.6742 81.3175 19.7644C81.895 21.4312 83.49 22.4896 85.2225 22.4896H85.25Z" fill="url(#paint5_linear_14_35)"/>
<path d="M83.9575 32.8612L92.2075 35.5071C92.6475 35.6394 93.0875 35.7188 93.5 35.7188C95.2325 35.7188 96.8275 34.6604 97.405 32.9935C98.12 30.9033 96.965 28.6544 94.7925 27.9665L86.5425 25.3206C84.3975 24.6327 82.0325 25.744 81.3175 27.8342C80.6025 29.9244 81.7575 32.1733 83.93 32.8612H83.9575Z" fill="url(#paint6_linear_14_35)"/>
<defs>
<linearGradient id="paint0_linear_14_35" x1="36.2304" y1="-43.2595" x2="151.572" y2="163.853" gradientUnits="userSpaceOnUse">
<stop stop-color="#000071"/>
<stop offset="0.61" stop-color="#0065B3"/>
</linearGradient>
<linearGradient id="paint1_linear_14_35" x1="36.2304" y1="-43.2595" x2="151.572" y2="163.853" gradientUnits="userSpaceOnUse">
<stop stop-color="#000071"/>
<stop offset="0.61" stop-color="#0065B3"/>
</linearGradient>
<linearGradient id="paint2_linear_14_35" x1="36.2304" y1="-43.2595" x2="151.572" y2="163.853" gradientUnits="userSpaceOnUse">
<stop stop-color="#000071"/>
<stop offset="0.61" stop-color="#0065B3"/>
</linearGradient>
<linearGradient id="paint3_linear_14_35" x1="36.2304" y1="-43.2595" x2="151.572" y2="163.853" gradientUnits="userSpaceOnUse">
<stop stop-color="#000071"/>
<stop offset="0.61" stop-color="#0065B3"/>
</linearGradient>
<linearGradient id="paint4_linear_14_35" x1="36.2304" y1="-43.2595" x2="151.572" y2="163.853" gradientUnits="userSpaceOnUse">
<stop stop-color="#000071"/>
<stop offset="0.61" stop-color="#0065B3"/>
</linearGradient>
<linearGradient id="paint5_linear_14_35" x1="36.2304" y1="-43.2595" x2="151.572" y2="163.853" gradientUnits="userSpaceOnUse">
<stop stop-color="#000071"/>
<stop offset="0.61" stop-color="#0065B3"/>
</linearGradient>
<linearGradient id="paint6_linear_14_35" x1="36.2304" y1="-43.2595" x2="151.572" y2="163.853" gradientUnits="userSpaceOnUse">
<stop stop-color="#000071"/>
<stop offset="0.61" stop-color="#0065B3"/>
</linearGradient>
</defs>
</svg>
